# Blender v2.90.0 Alpha OBJ File: 'Juanjomecagoentufeedback.blend'
# www.blender.org
mtllib ARBOLES.mtl
o Plane.008_Plane.010
v 3.755832 3.281550 8.120720
v 4.016373 3.896693 8.013309
v 3.728583 3.104954 7.923256
v 3.878797 3.140732 7.788631
v 4.092629 3.068996 7.695538
v 4.307655 3.014663 7.755689
v 4.422305 3.096565 7.919300
v 4.244582 3.168664 8.285545
v 4.016328 3.255396 8.345102
v 3.834089 3.219086 8.285423
v 3.763459 3.524872 8.018043
v 4.004472 4.089633 8.011187
v 3.807491 3.358218 7.837490
v 3.972959 3.395829 7.765543
v 4.177320 3.342866 7.745668
v 4.332360 3.310754 7.858111
v 4.371047 3.397363 8.033011
v 4.106583 3.462335 8.297956
v 3.901379 3.526618 8.285132
v 3.773529 3.479793 8.180932
v 3.871767 3.758277 7.873925
v 3.994592 4.249814 8.009426
v 4.004441 3.621927 7.777078
v 4.135680 3.672080 7.817126
v 4.259898 3.655706 7.907353
v 4.279855 3.654578 8.056849
v 4.197380 3.736717 8.189998
v 3.897690 3.763873 8.224707
v 3.791756 3.788129 8.113666
v 3.783609 3.728999 7.980947
v 3.852924 2.924668 7.789255
v 4.028633 3.697930 8.015495
v 4.069081 2.712626 7.648718
v 4.268520 2.794199 7.723644
v 4.452006 2.772228 7.876198
v 4.467528 2.772871 8.112285
v 4.318501 2.872934 8.296482
v 4.100739 2.973697 8.361411
v 3.856889 2.938666 8.341373
v 3.703918 2.973045 8.157898
v 3.705105 2.878586 7.948834
v 4.024119 3.968461 7.873166
v 3.990330 4.318906 8.008667
v 4.131505 3.890652 7.884937
v 4.162806 3.952469 8.068528
v 4.092318 3.955268 8.148621
v 3.986923 4.003911 8.176249
v 3.848246 3.985319 8.053797
v 3.864320 3.985171 7.951712
v 3.932796 3.940595 7.882621
v 6.235383 8.395943 -4.237784
v 6.503287 8.456479 -4.266879
v 6.059813 8.204825 -4.132095
v 5.974343 7.945559 -4.233923
v 6.089174 7.943712 -3.932995
v 6.077564 8.202271 -4.425286
v 6.055916 7.938642 -4.545454
v 6.404057 8.389845 -4.520308
v 6.264230 8.200491 -4.656867
v 6.406529 7.931444 -4.781385
v 6.715134 8.209087 -4.669545
v 6.827158 7.925958 -4.675034
v 6.707582 8.386081 -4.433286
v 6.933799 8.187439 -4.381898
v 7.020009 7.925108 -4.286372
v 6.750856 8.383850 -4.171227
v 6.921904 8.189892 -4.088405
v 6.864100 7.931570 -3.887377
v 6.668357 8.205667 -3.845019
v 6.488698 8.399215 -3.998552
v 6.463273 7.940097 -3.736327
v 6.302176 8.212317 -3.853385
v 6.514677 8.193470 -3.734700
v 6.708681 8.229012 -3.656758
v 6.406177 8.062506 -3.617688
v 6.344343 7.876141 -3.675654
v 6.477276 8.068482 -4.005644
v 6.385347 7.873580 -3.965220
v 6.707992 8.194159 -3.957304
v 6.563188 7.870060 -4.105747
v 6.783714 7.865038 -4.122601
v 6.789282 8.049013 -4.073639
v 7.015880 7.862611 -3.938281
v 7.004768 8.052711 -3.854719
v 6.884611 8.182243 -3.743477
v 7.035894 7.865726 -3.638723
v 6.928722 8.051308 -3.557084
v 6.821391 7.870784 -3.428706
v 6.692535 8.056452 -3.455154
v 6.525501 7.875886 -3.446052
v 6.153411 8.514151 -3.740227
v 6.471329 8.559608 -3.783131
v 5.971859 8.364677 -3.790956
v 5.925633 8.151262 -3.802391
v 6.017177 8.150823 -3.555052
v 5.991308 8.145693 -4.053198
v 6.232723 8.514732 -4.009305
v 6.211277 8.364843 -4.181267
v 6.273574 8.139898 -4.243142
v 6.533537 8.136784 -4.198759
v 6.510769 8.505638 -3.973231
v 6.580985 8.353245 -4.106920
v 6.722883 8.134014 -4.015183
v 6.715489 8.345896 -3.857760
v 6.736377 8.135933 -3.675174
v 6.562598 8.370529 -3.521941
v 6.572898 8.142782 -3.473997
v 6.373536 8.511404 -3.613666
v 6.322795 8.145784 -3.405515
v 6.185984 8.363148 -3.496569
v -4.820163 2.713176 5.788621
v -5.138657 3.492062 5.784188
v -4.901761 2.502791 6.038346
v -5.144733 2.565693 6.121221
v -5.448480 2.501832 6.120619
v -5.673742 2.453432 5.936037
v -5.718654 2.557814 5.680714
v -5.317016 2.615027 5.335483
v -5.012525 2.697113 5.383839
v -4.831765 2.638012 5.550278
v -4.865034 3.014620 5.908762
v -5.112454 3.726363 5.793906
v -5.020932 2.822404 6.101063
v -5.249500 2.886569 6.100953
v -5.503239 2.841908 6.017744
v -5.629706 2.812976 5.802006
v -5.579333 2.915538 5.572868
v -5.128384 2.959804 5.394168
v -4.889662 3.019446 5.517015
v -4.796330 2.954331 5.708289
v -5.050045 3.315006 6.025874
v -5.090701 3.920882 5.801974
v -5.264919 3.164861 6.071830
v -5.394940 3.236814 5.955595
v -5.495548 3.225039 5.782629
v -5.442292 3.219801 5.593247
v -5.271446 3.307142 5.477346
v -4.899977 3.310808 5.592459
v -4.830972 3.334712 5.780830
v -4.893638 3.266916 5.943661
v -5.128963 2.299699 6.132910
v -5.165650 3.250689 5.774176
v -5.469487 2.066740 6.187185
v -5.659483 2.182079 5.993736
v -5.798044 2.166647 5.715179
v -5.695000 2.159832 5.424467
v -5.418585 2.260831 5.282309
v -5.122684 2.360810 5.318823
v -4.849163 2.295965 5.469995
v -4.761440 2.330581 5.769691
v -4.876700 2.223497 6.018862
v -5.214752 3.585703 5.948260
v -5.081318 4.004786 5.805454
v -5.340128 3.500423 5.877693
v -5.278334 3.571718 5.641885
v -5.154280 3.565444 5.582840
v -5.013023 3.613825 5.605057
v -4.914403 3.582831 5.823975
v -4.985697 3.588075 5.937780
v -5.104627 3.542782 5.984499
v -3.179191 2.194444 12.686794
v -2.964403 2.701565 12.598246
v -3.201655 2.048858 12.524006
v -3.077820 2.078353 12.413023
v -2.901538 2.019215 12.336276
v -2.724271 1.974424 12.385864
v -2.629754 2.041943 12.520745
v -2.776268 2.101381 12.822676
v -2.964440 2.172882 12.871775
v -3.114677 2.142949 12.822576
v -3.172904 2.395037 12.602147
v -2.974214 2.860624 12.596497
v -3.136604 2.257648 12.453300
v -3.000193 2.288655 12.393989
v -2.831719 2.244992 12.377604
v -2.703904 2.218519 12.470302
v -2.672011 2.289919 12.614489
v -2.890034 2.343482 12.832907
v -3.059204 2.396476 12.822336
v -3.164602 2.357874 12.736433
v -3.083615 2.587455 12.483338
v -2.982359 2.992676 12.595045
v -2.974239 2.475049 12.403497
v -2.866046 2.516394 12.436513
v -2.763642 2.502896 12.510896
v -2.747190 2.501966 12.634139
v -2.815181 2.569681 12.743907
v -3.062245 2.592068 12.772520
v -3.149576 2.612065 12.680979
v -3.156292 2.563318 12.571566
v -3.099149 1.900232 12.413537
v -2.954296 2.537705 12.600048
v -2.920950 1.725426 12.297678
v -2.756533 1.792673 12.359447
v -2.605269 1.774560 12.485211
v -2.592472 1.775091 12.679840
v -2.715330 1.857582 12.831693
v -2.894851 1.940651 12.885219
v -3.095880 1.911772 12.868701
v -3.221989 1.940113 12.717444
v -3.221011 1.862242 12.545092
v -2.958016 2.760729 12.482711
v -2.985872 3.049635 12.594418
v -2.869488 2.696585 12.492416
v -2.843684 2.747546 12.643768
v -2.901794 2.749854 12.709795
v -2.988681 2.789954 12.732572
v -3.103006 2.774627 12.631623
v -3.089754 2.774505 12.547465
v -3.033303 2.737758 12.490507
vt 0.165212 0.498064
vt 0.165211 0.498032
vt 0.165237 0.498064
vt 0.165244 0.498043
vt 0.165246 0.498019
vt 0.165233 0.497998
vt 0.165210 0.497994
vt 0.165175 0.498022
vt 0.165178 0.498046
vt 0.165191 0.498064
vt 0.165024 0.498773
vt 0.165052 0.498772
vt 0.165024 0.498795
vt 0.165043 0.498802
vt 0.165064 0.498804
vt 0.165083 0.498792
vt 0.165086 0.498771
vt 0.165062 0.498740
vt 0.165040 0.498743
vt 0.165024 0.498754
vt 0.165246 0.498782
vt 0.165223 0.498783
vt 0.165246 0.498764
vt 0.165231 0.498759
vt 0.165214 0.498758
vt 0.165199 0.498768
vt 0.165196 0.498784
vt 0.165216 0.498809
vt 0.165234 0.498806
vt 0.165246 0.498797
vt 0.165852 0.498098
vt 0.165854 0.498134
vt 0.165825 0.498098
vt 0.165816 0.498122
vt 0.165814 0.498149
vt 0.165829 0.498172
vt 0.165855 0.498176
vt 0.165876 0.498165
vt 0.165894 0.498145
vt 0.165890 0.498118
vt 0.165876 0.498098
vt 0.165134 0.498416
vt 0.165134 0.498432
vt 0.165122 0.498416
vt 0.165117 0.498438
vt 0.165124 0.498448
vt 0.165135 0.498450
vt 0.165151 0.498437
vt 0.165150 0.498425
vt 0.165144 0.498416
vt 0.165039 0.497903
vt 0.165037 0.497942
vt 0.165004 0.497863
vt 0.165092 0.497888
vt 0.165093 0.497956
vt 0.165112 0.497983
vt 0.165167 0.497906
vt 0.165170 0.497960
vt 0.165141 0.497848
vt 0.165221 0.497960
vt 0.165248 0.497880
vt 0.165278 0.497863
vt 0.165205 0.497841
vt 0.165243 0.497789
vt 0.165243 0.497756
vt 0.165168 0.497787
vt 0.165185 0.497741
vt 0.165140 0.497711
vt 0.165095 0.497742
vt 0.165096 0.497807
vt 0.165038 0.497757
vt 0.165032 0.497810
vt 0.165144 0.498706
vt 0.165209 0.498714
vt 0.165117 0.498734
vt 0.165205 0.498741
vt 0.165130 0.498757
vt 0.165124 0.498663
vt 0.165190 0.498659
vt 0.165242 0.498694
vt 0.165241 0.498635
vt 0.165225 0.498636
vt 0.165189 0.498577
vt 0.165166 0.498589
vt 0.165141 0.498621
vt 0.165112 0.498577
vt 0.165093 0.498608
vt 0.165059 0.498635
vt 0.165070 0.498669
vt 0.165068 0.498712
vt 0.165044 0.498914
vt 0.165022 0.498920
vt 0.165038 0.498852
vt 0.165052 0.498982
vt 0.165084 0.498895
vt 0.165160 0.498893
vt 0.165114 0.498953
vt 0.165116 0.498995
vt 0.165134 0.499019
vt 0.165201 0.499000
vt 0.165177 0.498936
vt 0.165205 0.498969
vt 0.165240 0.498942
vt 0.165227 0.498901
vt 0.165230 0.498852
vt 0.165173 0.498827
vt 0.165180 0.498805
vt 0.165111 0.498800
vt 0.165131 0.498857
vt 0.165080 0.498832
vt 0.165212 0.498064
vt 0.165211 0.498032
vt 0.165237 0.498064
vt 0.165244 0.498043
vt 0.165246 0.498019
vt 0.165233 0.497998
vt 0.165210 0.497994
vt 0.165175 0.498022
vt 0.165178 0.498046
vt 0.165191 0.498064
vt 0.165024 0.498773
vt 0.165052 0.498772
vt 0.165024 0.498795
vt 0.165043 0.498802
vt 0.165064 0.498804
vt 0.165083 0.498792
vt 0.165086 0.498771
vt 0.165062 0.498740
vt 0.165040 0.498743
vt 0.165024 0.498754
vt 0.165246 0.498782
vt 0.165223 0.498783
vt 0.165246 0.498764
vt 0.165231 0.498759
vt 0.165214 0.498758
vt 0.165199 0.498768
vt 0.165196 0.498784
vt 0.165216 0.498809
vt 0.165234 0.498806
vt 0.165246 0.498797
vt 0.165852 0.498098
vt 0.165854 0.498134
vt 0.165825 0.498098
vt 0.165816 0.498122
vt 0.165814 0.498149
vt 0.165829 0.498172
vt 0.165855 0.498176
vt 0.165876 0.498165
vt 0.165894 0.498145
vt 0.165890 0.498118
vt 0.165876 0.498098
vt 0.165134 0.498416
vt 0.165134 0.498432
vt 0.165122 0.498416
vt 0.165117 0.498438
vt 0.165124 0.498448
vt 0.165135 0.498450
vt 0.165151 0.498437
vt 0.165150 0.498425
vt 0.165144 0.498416
vt 0.165212 0.498064
vt 0.165211 0.498032
vt 0.165237 0.498064
vt 0.165244 0.498043
vt 0.165246 0.498019
vt 0.165233 0.497998
vt 0.165210 0.497994
vt 0.165175 0.498022
vt 0.165178 0.498046
vt 0.165191 0.498064
vt 0.165024 0.498773
vt 0.165052 0.498772
vt 0.165024 0.498795
vt 0.165043 0.498802
vt 0.165064 0.498804
vt 0.165083 0.498792
vt 0.165086 0.498771
vt 0.165062 0.498740
vt 0.165040 0.498743
vt 0.165024 0.498754
vt 0.165246 0.498782
vt 0.165223 0.498783
vt 0.165246 0.498764
vt 0.165231 0.498759
vt 0.165214 0.498758
vt 0.165199 0.498768
vt 0.165196 0.498784
vt 0.165216 0.498809
vt 0.165234 0.498806
vt 0.165246 0.498797
vt 0.165852 0.498098
vt 0.165854 0.498134
vt 0.165825 0.498098
vt 0.165816 0.498122
vt 0.165814 0.498149
vt 0.165829 0.498172
vt 0.165855 0.498176
vt 0.165876 0.498165
vt 0.165894 0.498145
vt 0.165890 0.498118
vt 0.165876 0.498098
vt 0.165134 0.498416
vt 0.165134 0.498432
vt 0.165122 0.498416
vt 0.165117 0.498438
vt 0.165124 0.498448
vt 0.165135 0.498450
vt 0.165151 0.498437
vt 0.165150 0.498425
vt 0.165144 0.498416
vn -0.9154 0.3544 -0.1907
vn -0.6734 0.3205 -0.6662
vn -0.2857 0.3204 -0.9032
vn 0.3351 0.3644 -0.8688
vn 0.6426 0.4026 -0.6519
vn 0.8549 0.3941 0.3373
vn 0.3764 0.4257 0.8228
vn -0.3572 0.4292 0.8296
vn -0.7542 0.4091 0.5135
vn -0.7972 0.3341 -0.5028
vn -0.4379 0.3177 -0.8410
vn -0.0051 0.3340 -0.9426
vn 0.5924 0.3881 -0.7060
vn 0.8189 0.4213 -0.3898
vn 0.6980 0.3886 0.6015
vn 0.0767 0.4248 0.9020
vn -0.6605 0.4228 0.6204
vn -0.9066 0.3889 0.1637
vn -0.3167 0.3248 -0.8912
vn 0.1508 0.3452 -0.9264
vn 0.5757 0.3813 -0.7233
vn 0.8992 0.4216 -0.1169
vn 0.8610 0.4338 0.2657
vn 0.1402 0.3775 0.9153
vn -0.6092 0.4196 0.6729
vn -0.9188 0.3784 -0.1122
vn -0.7692 0.3412 -0.5403
vn -0.2691 0.3263 -0.9062
vn 0.2011 0.3490 -0.9153
vn 0.6168 0.3854 -0.6863
vn 0.9043 0.4227 -0.0606
vn 0.8027 0.4247 0.4187
vn 0.4331 0.4232 0.7958
vn -0.1337 0.4163 0.8994
vn -0.6578 0.4178 0.6267
vn -0.9110 0.3739 -0.1741
vn -0.7370 0.3386 -0.5849
vn 0.3596 0.3665 -0.8581
vn 0.8862 0.3720 -0.2763
vn 0.6883 0.4205 0.5911
vn 0.4081 0.4254 0.8078
vn -0.6432 0.3650 0.6731
vn -0.9172 0.3711 -0.1450
vn -0.5503 0.3381 -0.7635
vn -0.1981 0.3368 -0.9205
vn -0.9555 0.2611 0.1372
vn -0.9540 0.2490 0.1669
vn -0.9211 0.1652 0.3525
vn -0.6116 0.7874 0.0768
vn -0.6276 0.7298 -0.2712
vn -0.6504 0.7242 0.2291
vn -0.9481 0.1930 -0.2526
vn -0.8503 0.2745 -0.4490
vn -0.8716 0.2608 -0.4151
vn -0.2242 0.7522 -0.6196
vn -0.3509 0.7042 -0.6172
vn -0.2341 0.9589 -0.1605
vn -0.3320 0.2459 -0.9107
vn -0.2711 0.2825 -0.9202
vn -0.5548 0.0894 -0.8272
vn 0.3173 0.7168 -0.6209
vn 0.5478 0.2323 -0.8037
vn 0.5179 0.2209 -0.8264
vn 0.2449 0.1156 -0.9626
vn 0.0942 0.9531 -0.2875
vn 0.8881 0.1315 -0.4404
vn 0.9485 0.2338 -0.2138
vn 0.9461 0.2266 -0.2315
vn 0.4185 0.7332 -0.5359
vn 0.6460 0.6207 -0.4444
vn 0.2957 0.9544 -0.0407
vn 0.7101 0.7030 -0.0388
vn 0.6163 0.7483 0.2454
vn 0.6599 0.6993 0.2749
vn 0.9293 0.0737 0.3619
vn 0.8375 0.2063 0.5059
vn 0.8048 0.2418 0.5421
vn 0.2996 0.7154 0.6312
vn 0.1976 0.9565 0.2149
vn 0.3526 0.1081 0.9295
vn -0.0338 0.7810 0.6236
vn -0.3176 0.7387 0.5945
vn -0.4619 0.1053 0.8806
vn -0.1961 0.9611 0.1944
vn -0.6033 0.7892 0.1152
vn -0.4539 0.7579 -0.4685
vn -0.5749 0.7464 0.3351
vn -0.9185 0.3679 -0.1450
vn -0.8543 0.3040 -0.4215
vn -0.9273 0.3495 -0.1344
vn -0.1346 0.9843 -0.1138
vn -0.6548 0.3416 -0.6742
vn -0.2537 0.3459 -0.9033
vn 0.2330 0.2819 -0.9307
vn -0.0305 0.7675 -0.6403
vn 0.2611 0.6885 -0.6766
vn 0.2644 0.2756 -0.9242
vn 0.8451 0.2208 -0.4869
vn 0.5073 0.6938 -0.5111
vn 0.2027 0.9727 -0.1133
vn 0.9250 0.2834 -0.2531
vn 0.9462 0.2994 0.1229
vn 0.6275 0.7721 0.1006
vn 0.6355 0.6945 0.3375
vn 0.6847 0.7218 -0.1008
vn 0.6978 0.0904 0.7105
vn -0.1175 0.7701 0.6270
vn -0.0198 0.7603 0.6492
vn 0.2899 0.7155 0.6356
vn -0.0565 0.1023 0.9932
vn -0.7832 0.0676 0.6180
vn -0.9761 0.2081 0.0627
vn -0.9772 0.2099 0.0328
vn -0.9222 0.1814 0.3416
vn -0.9430 0.2177 -0.2518
vn -0.1469 0.9883 -0.0412
vn -0.3137 0.7348 -0.6014
vn -0.2277 0.7373 -0.6360
vn -0.6913 0.5852 -0.4238
vn -0.1868 0.2222 -0.9569
vn -0.1324 0.2286 -0.9645
vn -0.5557 0.0739 -0.8281
vn 0.1844 0.3316 -0.9252
vn 0.0652 0.9634 -0.2600
vn 0.3777 0.7146 -0.5888
vn 0.4327 0.6989 -0.5695
vn 0.6894 0.1496 -0.7088
vn 0.6913 0.6296 -0.3546
vn 0.9971 0.0645 -0.0399
vn 0.6035 0.7705 0.2050
vn 0.4232 0.7375 0.5263
vn 0.6749 0.7272 0.1256
vn 0.5486 0.1959 0.8128
vn 0.5302 0.1976 0.8246
vn 0.7682 0.1650 0.6186
vn 0.2605 0.2102 0.9423
vn 0.0839 0.7648 0.6388
vn -0.3103 0.7128 0.6290
vn -0.5864 0.2544 0.7690
vn -0.6347 0.3096 0.7080
vn -0.4360 0.1003 0.8944
vn -0.1101 0.9709 0.2126
vn -0.5760 0.7773 0.2530
vn -0.6540 0.7381 0.1658
vn -0.9408 0.3337 -0.0599
vn -0.7335 0.3309 -0.5938
vn -0.0334 0.4052 -0.9136
vn 0.7670 0.3143 -0.5594
vn 0.9455 0.3237 0.0356
vn 0.6695 0.7355 -0.1043
vn 0.6561 0.3666 0.6597
vn -0.0140 0.3880 0.9216
vn -0.7032 0.3794 0.6013
vn 0.5008 0.7824 -0.3701
vn 0.8833 0.4099 0.2276
vn 0.4295 0.7836 0.4488
vn 0.3735 0.3798 0.8463
vn -0.4356 0.4425 0.7839
vn -0.5964 0.7835 -0.1741
vn -0.7469 0.4821 -0.4580
vn 0.1954 0.3464 -0.9175
vn 0.8276 0.3531 -0.4364
vn 0.6418 0.7623 -0.0833
vn 0.8469 0.3944 0.3566
vn 0.0531 0.4141 0.9087
vn -0.7281 0.4324 0.5319
vn 0.7844 0.3238 0.5291
vn 0.3783 0.3143 0.8707
vn -0.0736 0.3414 0.9370
vn -0.6276 0.4192 0.6560
vn -0.8165 0.4697 0.3357
vn -0.6170 0.4542 -0.6426
vn 0.0197 0.4522 -0.8917
vn 0.6866 0.4110 -0.5997
vn 0.9137 0.3727 -0.1620
vn 0.5562 0.3173 0.7681
vn 0.0918 0.3287 0.9400
vn -0.3477 0.3715 0.8609
vn -0.7942 0.4533 0.4047
vn -0.8697 0.4928 0.0294
vn -0.3682 0.4359 -0.8212
vn 0.3250 0.4320 -0.8413
vn 0.8729 0.3899 -0.2932
vn 0.9132 0.3509 0.2074
vn -0.0397 0.3440 0.9381
vn -0.4837 0.3910 0.7831
vn -0.7866 0.4458 0.4272
vn -0.8343 0.4923 -0.2482
vn -0.6467 0.4967 -0.5789
vn 0.2694 0.3871 -0.8818
vn 0.8481 0.3888 -0.3600
vn 0.8183 0.3460 0.4590
vn 0.5165 0.3271 0.7913
vn -0.0897 0.3485 0.9330
vn -0.5251 0.3973 0.7526
vn -0.8087 0.4513 0.3773
vn -0.8165 0.4927 -0.3010
vn -0.5335 0.4818 -0.6952
vn -0.0433 0.4534 -0.8902
vn 0.5137 0.4104 -0.7535
vn 0.8729 0.3849 -0.2999
vn 0.7874 0.3434 0.5118
vn 0.4696 0.3274 0.8199
vn -0.6455 0.4224 0.6364
vn -0.8910 0.4429 -0.0996
vn -0.3602 0.4686 -0.8067
vn -0.0154 0.4540 -0.8909
vn 0.8769 0.3316 -0.3481
vn 0.8041 0.3395 0.4881
vn 0.2280 0.3418 0.9117
vn -0.1602 0.3637 0.9176
vn 0.3765 0.4257 0.8228
vn -0.7543 0.4091 0.5135
vn 0.9042 0.4227 -0.0606
usemtl Material_Juanjo
s 1
f 1/1/1 2/2/1 3/3/1
f 3/3/2 2/2/2 4/4/2
f 4/4/3 2/2/3 5/5/3
f 5/5/4 2/2/4 6/6/4
f 6/6/5 2/2/5 7/7/5
f 7/7/6 2/2/6 8/8/6
f 8/8/7 2/2/7 9/9/7
f 9/9/8 2/2/8 10/10/8
f 10/10/9 2/2/9 1/1/9
f 11/11/10 12/12/10 13/13/10
f 13/13/11 12/12/11 14/14/11
f 14/14/12 12/12/12 15/15/12
f 15/15/13 12/12/13 16/16/13
f 16/16/14 12/12/14 17/17/14
f 17/17/15 12/12/15 18/18/15
f 18/18/16 12/12/16 19/19/16
f 19/19/17 12/12/17 20/20/17
f 20/20/18 12/12/18 11/11/18
f 21/21/19 22/22/19 23/23/19
f 23/23/20 22/22/20 24/24/20
f 24/24/21 22/22/21 25/25/21
f 25/25/22 22/22/22 26/26/22
f 26/26/23 22/22/23 27/27/23
f 27/27/24 22/22/24 28/28/24
f 28/28/25 22/22/25 29/29/25
f 29/29/26 22/22/26 30/30/26
f 30/30/27 22/22/27 21/21/27
f 31/31/28 32/32/28 33/33/28
f 33/33/29 32/32/29 34/34/29
f 34/34/30 32/32/30 35/35/30
f 35/35/31 32/32/31 36/36/31
f 36/36/32 32/32/32 37/37/32
f 37/37/33 32/32/33 38/38/33
f 38/38/34 32/32/34 39/39/34
f 39/39/35 32/32/35 40/40/35
f 40/40/36 32/32/36 41/41/36
f 41/41/37 32/32/37 31/31/37
f 42/42/38 43/43/38 44/44/38
f 44/44/39 43/43/39 45/45/39
f 45/45/40 43/43/40 46/46/40
f 46/46/41 43/43/41 47/47/41
f 47/47/42 43/43/42 48/48/42
f 48/48/43 43/43/43 49/49/43
f 49/49/44 43/43/44 50/50/44
f 50/50/45 43/43/45 42/42/45
f 53/51/46 54/52/47 55/53/48
f 51/54/49 56/55/50 53/51/51
f 54/52/52 56/55/53 57/56/54
f 56/55/50 58/57/55 59/58/56
f 51/54/57 52/59/57 58/57/57
f 59/58/58 60/60/59 57/56/60
f 59/58/56 58/57/55 61/61/61
f 61/61/62 62/62/63 60/60/64
f 58/57/65 52/59/65 63/63/65
f 62/62/66 64/64/67 65/65/68
f 61/61/61 63/63/69 64/64/70
f 63/63/71 52/59/71 66/66/71
f 64/64/72 66/66/73 67/67/74
f 65/65/75 67/67/76 68/68/77
f 66/66/73 69/69/78 67/67/74
f 66/66/79 52/59/79 70/70/79
f 68/68/80 69/69/80 71/71/80
f 70/70/81 72/72/82 69/69/78
f 71/71/83 72/72/83 55/53/83
f 72/72/82 51/54/49 53/51/51
f 70/70/84 52/59/84 51/54/84
f 73/73/85 77/74/86 75/75/87
f 75/75/88 78/76/89 76/77/90
f 73/73/91 74/78/91 79/79/91
f 77/74/92 80/80/93 78/76/89
f 77/74/92 81/81/94 80/80/93
f 77/74/86 79/79/95 82/82/96
f 82/82/97 83/83/98 81/81/94
f 82/82/96 79/79/95 84/84/99
f 79/79/100 74/78/100 85/85/100
f 84/84/101 86/86/102 83/83/98
f 85/85/103 87/87/104 84/84/105
f 86/86/106 87/87/106 88/88/106
f 74/78/107 89/89/108 87/87/109
f 88/88/110 89/89/110 90/90/110
f 74/78/107 75/75/87 89/89/108
f 90/90/111 75/75/111 76/77/111
f 93/91/112 94/92/113 95/93/114
f 94/92/113 93/91/112 96/94/115
f 91/95/116 92/96/116 97/97/116
f 97/97/117 98/98/118 93/91/119
f 98/98/120 99/99/121 96/94/122
f 98/98/120 100/100/123 99/99/121
f 97/97/124 92/96/124 101/101/124
f 98/98/118 101/101/125 102/102/126
f 100/100/127 102/102/127 103/103/127
f 102/102/126 101/101/125 104/104/128
f 103/103/129 104/104/129 105/105/129
f 92/96/130 106/106/131 104/104/132
f 106/106/133 107/107/134 105/105/135
f 107/107/134 106/106/133 109/108/136
f 106/106/131 108/109/137 110/110/138
f 110/110/139 95/93/140 109/108/141
f 108/109/142 92/96/142 91/95/142
f 110/110/138 91/95/143 93/91/144
f 54/52/47 53/51/46 56/55/145
f 56/55/50 51/54/49 58/57/55
f 56/55/53 59/58/146 57/56/54
f 59/58/58 61/61/147 60/60/59
f 58/57/55 63/63/69 61/61/61
f 62/62/63 61/61/62 64/64/148
f 64/64/67 67/67/149 65/65/68
f 64/64/72 63/63/150 66/66/73
f 66/66/73 70/70/81 69/69/78
f 67/67/76 69/69/151 68/68/77
f 71/71/152 69/69/152 72/72/152
f 72/72/82 70/70/81 51/54/49
f 55/53/153 72/72/153 53/51/153
f 75/75/88 77/74/92 78/76/89
f 73/73/85 79/79/95 77/74/86
f 77/74/92 82/82/97 81/81/94
f 82/82/97 84/84/101 83/83/98
f 84/84/105 79/79/154 85/85/103
f 86/86/102 84/84/101 87/87/155
f 85/85/103 74/78/156 87/87/104
f 88/88/157 87/87/157 89/89/157
f 74/78/107 73/73/85 75/75/87
f 90/90/158 89/89/158 75/75/158
f 91/95/143 97/97/159 93/91/144
f 96/94/160 93/91/160 98/98/160
f 98/98/120 102/102/161 100/100/123
f 98/98/118 97/97/117 101/101/125
f 103/103/162 102/102/162 104/104/162
f 104/104/132 101/101/163 92/96/130
f 105/105/164 104/104/164 106/106/164
f 92/96/130 108/109/137 106/106/131
f 109/108/165 106/106/165 110/110/165
f 108/109/137 91/95/143 110/110/138
f 95/93/140 110/110/139 93/91/166
f 111/111/167 112/112/167 113/113/167
f 113/113/168 112/112/168 114/114/168
f 114/114/169 112/112/169 115/115/169
f 115/115/170 112/112/170 116/116/170
f 116/116/171 112/112/171 117/117/171
f 117/117/172 112/112/172 118/118/172
f 118/118/173 112/112/173 119/119/173
f 119/119/174 112/112/174 120/120/174
f 120/120/175 112/112/175 111/111/175
f 121/121/176 122/122/176 123/123/176
f 123/123/177 122/122/177 124/124/177
f 124/124/178 122/122/178 125/125/178
f 125/125/179 122/122/179 126/126/179
f 126/126/180 122/122/180 127/127/180
f 127/127/181 122/122/181 128/128/181
f 128/128/182 122/122/182 129/129/182
f 129/129/183 122/122/183 130/130/183
f 130/130/184 122/122/184 121/121/184
f 131/131/185 132/132/185 133/133/185
f 133/133/186 132/132/186 134/134/186
f 134/134/187 132/132/187 135/135/187
f 135/135/188 132/132/188 136/136/188
f 136/136/189 132/132/189 137/137/189
f 137/137/190 132/132/190 138/138/190
f 138/138/191 132/132/191 139/139/191
f 139/139/192 132/132/192 140/140/192
f 140/140/193 132/132/193 131/131/193
f 141/141/194 142/142/194 143/143/194
f 143/143/195 142/142/195 144/144/195
f 144/144/196 142/142/196 145/145/196
f 145/145/197 142/142/197 146/146/197
f 146/146/198 142/142/198 147/147/198
f 147/147/199 142/142/199 148/148/199
f 148/148/200 142/142/200 149/149/200
f 149/149/201 142/142/201 150/150/201
f 150/150/202 142/142/202 151/151/202
f 151/151/203 142/142/203 141/141/203
f 152/152/204 153/153/204 154/154/204
f 154/154/205 153/153/205 155/155/205
f 155/155/206 153/153/206 156/156/206
f 156/156/207 153/153/207 157/157/207
f 157/157/208 153/153/208 158/158/208
f 158/158/209 153/153/209 159/159/209
f 159/159/210 153/153/210 160/160/210
f 160/160/211 153/153/211 152/152/211
f 161/161/1 162/162/1 163/163/1
f 163/163/2 162/162/2 164/164/2
f 164/164/3 162/162/3 165/165/3
f 165/165/4 162/162/4 166/166/4
f 166/166/5 162/162/5 167/167/5
f 167/167/6 162/162/6 168/168/6
f 168/168/212 162/162/212 169/169/212
f 169/169/8 162/162/8 170/170/8
f 170/170/213 162/162/213 161/161/213
f 171/171/10 172/172/10 173/173/10
f 173/173/11 172/172/11 174/174/11
f 174/174/12 172/172/12 175/175/12
f 175/175/13 172/172/13 176/176/13
f 176/176/14 172/172/14 177/177/14
f 177/177/15 172/172/15 178/178/15
f 178/178/16 172/172/16 179/179/16
f 179/179/17 172/172/17 180/180/17
f 180/180/18 172/172/18 171/171/18
f 181/181/19 182/182/19 183/183/19
f 183/183/20 182/182/20 184/184/20
f 184/184/21 182/182/21 185/185/21
f 185/185/22 182/182/22 186/186/22
f 186/186/23 182/182/23 187/187/23
f 187/187/24 182/182/24 188/188/24
f 188/188/25 182/182/25 189/189/25
f 189/189/26 182/182/26 190/190/26
f 190/190/27 182/182/27 181/181/27
f 191/191/28 192/192/28 193/193/28
f 193/193/29 192/192/29 194/194/29
f 194/194/30 192/192/30 195/195/30
f 195/195/214 192/192/214 196/196/214
f 196/196/32 192/192/32 197/197/32
f 197/197/33 192/192/33 198/198/33
f 198/198/34 192/192/34 199/199/34
f 199/199/35 192/192/35 200/200/35
f 200/200/36 192/192/36 201/201/36
f 201/201/37 192/192/37 191/191/37
f 202/202/38 203/203/38 204/204/38
f 204/204/39 203/203/39 205/205/39
f 205/205/40 203/203/40 206/206/40
f 206/206/41 203/203/41 207/207/41
f 207/207/42 203/203/42 208/208/42
f 208/208/43 203/203/43 209/209/43
f 209/209/44 203/203/44 210/210/44
f 210/210/45 203/203/45 202/202/45
