# Blender v2.90.0 Alpha OBJ File: 'Juanjomecagoentufeedback.blend'
# www.blender.org
mtllib Mountains.mtl
o Plane.003
v -18.896652 -0.943496 9.182076
v -19.039352 1.659022 11.217148
v -17.950466 0.610073 10.270962
v -19.182053 4.632352 13.252220
v -18.093166 4.040890 12.306033
v -17.004280 2.699928 11.359848
v -14.308418 4.040889 16.661577
v -13.362232 1.865369 17.750463
v -13.219532 2.699928 15.715391
v -12.273346 0.835258 16.804276
v -18.753954 -1.435553 7.147003
v -17.807766 -1.393210 8.235888
v -16.861580 -0.616446 9.324774
v -16.718880 -1.435553 7.289702
v -15.772695 -1.393210 8.378587
v -15.915393 0.835259 10.413660
v -14.826509 -0.943496 9.467473
v -16.058094 4.208189 12.448732
v -14.969207 1.659023 11.502546
v -13.880322 -0.419239 10.556358
v -15.111906 4.789822 13.537619
v -14.023021 2.067430 12.591432
v -12.934134 -0.198729 11.645245
v -14.165719 4.040890 14.626506
v -13.076834 1.659022 13.680318
v -11.987948 -0.419240 12.734130
v -12.130647 0.835258 14.769203
v -11.041761 -0.943496 13.823015
v -11.184460 -0.364095 15.858088
v -11.327160 -0.681340 17.893162
v -18.510933 0.734911 -0.921804
v -18.510933 3.127326 -3.263396
v -18.510933 6.115144 -5.604989
v -18.510933 10.643806 -7.946581
v -16.169338 1.786073 -0.921804
v -16.169338 3.795279 -3.263396
v -16.169340 6.841515 -5.604989
v -16.169338 10.758410 -7.946581
v -13.827747 1.614278 -0.921804
v -13.827747 3.309456 -3.263396
v -13.827747 6.429133 -5.604989
v -13.827747 10.220934 -7.946581
v -11.486155 1.519618 -0.921804
v -11.486155 2.404954 -3.263397
v -11.486155 5.194833 -5.604989
v -11.486155 8.459538 -7.946581
v -13.827747 13.383089 -10.288174
v -11.486155 10.643807 -10.288175
v -9.144562 1.665604 -3.263397
v -9.144562 2.065715 -5.604990
v -9.144562 4.683689 -7.946582
v -9.144562 5.859816 -10.288176
v -11.486155 11.603891 -12.629766
v -9.144562 7.440418 -12.629766
v -11.486155 10.643808 -14.971359
v -9.144562 7.112428 -14.971359
v -11.486155 8.467112 -17.312954
v -9.144562 5.440315 -17.312954
v -18.510933 10.915377 -17.312952
v -18.510933 6.777478 -19.654549
v -18.510933 3.403970 -21.996141
v -16.169338 11.859501 -17.312952
v -16.169338 7.440421 -19.654549
v -16.169338 3.761911 -21.996141
v -13.827747 10.643808 -17.312952
v -13.827747 6.777478 -19.654549
v -13.827747 3.403970 -21.996141
v -11.486155 5.440315 -19.654549
v -11.486155 2.552979 -21.996141
v -9.144562 3.493483 -19.654549
v -6.802969 0.757601 -5.604990
v -6.802969 1.553622 -7.946582
v -6.802969 2.426400 -10.288176
v -6.802969 3.761908 -12.629767
v -6.802969 3.805310 -14.971360
v -6.802969 2.978519 -17.312954
v -16.098783 0.927320 5.789785
v -14.059271 -0.044105 5.742105
v -15.055188 1.092299 6.785700
v -13.015675 -0.027726 6.738021
v -14.011590 1.863802 7.781617
v -11.972078 0.006621 7.733936
v -12.967996 2.079059 8.777533
v -10.928482 -0.027727 8.729852
v -11.924399 1.863802 9.773450
v -9.884886 0.600241 9.725769
v -10.880803 1.092298 10.769365
v -18.138298 0.642584 5.837464
v -17.094700 1.419347 6.833381
v -16.051104 2.871051 7.829297
v -15.007507 3.901164 8.825212
v -13.963910 4.302692 9.821128
v -12.920315 3.694816 10.817046
v -11.876719 2.645866 11.812963
v -19.134214 0.476643 6.881061
v -18.090618 2.120511 7.876977
v -17.047020 4.543511 8.872892
v -16.003424 6.076684 9.868810
v -14.959827 6.668147 10.864727
v -13.916231 6.076684 11.860642
v -12.872636 4.735722 12.856559
v -19.086533 3.286785 8.920573
v -18.042938 6.076684 9.916488
v -16.856300 4.735721 17.030943
v -8.841290 0.600240 10.721686
v -9.837206 0.642583 11.765284
v -10.832383 1.414782 12.810246
v -8.793611 0.600240 12.761199
v -9.787517 0.630170 13.808512
v -11.772365 2.521049 13.957290
v -10.695627 0.537621 15.014501
v -13.868551 6.243983 13.900156
v -12.715637 3.019701 15.098248
v -11.555754 0.223284 16.309225
v -14.864469 6.825615 14.943751
v -13.704950 3.387327 16.154057
v -12.485146 0.032955 17.475857
v -15.860384 6.076683 15.987349
v -14.707469 3.019701 17.185440
vt 0.172522 0.175838
vt 0.172397 0.175355
vt 0.171739 0.175222
vt 0.173164 0.176265
vt 0.173137 0.175987
vt 0.173035 0.175589
vt 0.174768 0.175993
vt 0.174937 0.175540
vt 0.174342 0.175666
vt 0.171731 0.174711
vt 0.171234 0.174727
vt 0.172284 0.174770
vt 0.172287 0.174214
vt 0.171784 0.174212
vt 0.172894 0.174985
vt 0.172807 0.174260
vt 0.173428 0.175756
vt 0.173338 0.175113
vt 0.173303 0.174362
vt 0.173687 0.175806
vt 0.173713 0.175196
vt 0.173759 0.174429
vt 0.173951 0.175767
vt 0.174094 0.175162
vt 0.174224 0.174434
vt 0.174547 0.175095
vt 0.174724 0.174413
vt 0.175116 0.174989
vt 0.174197 0.176036
vt 0.175577 0.175484
vt 0.167700 0.178814
vt 0.167743 0.178160
vt 0.167236 0.178210
vt 0.167780 0.177427
vt 0.167352 0.177479
vt 0.167802 0.176760
vt 0.167525 0.176746
vt 0.168200 0.178866
vt 0.168232 0.178249
vt 0.168192 0.177479
vt 0.168101 0.176801
vt 0.168704 0.178902
vt 0.168757 0.178365
vt 0.168675 0.177604
vt 0.168491 0.176918
vt 0.168392 0.176504
vt 0.168039 0.176405
vt 0.169291 0.178424
vt 0.169435 0.177923
vt 0.169221 0.177209
vt 0.169160 0.176725
vt 0.168998 0.176274
vt 0.168362 0.176203
vt 0.169045 0.175880
vt 0.168435 0.175925
vt 0.169226 0.175396
vt 0.168590 0.175530
vt 0.167889 0.175680
vt 0.167918 0.175027
vt 0.167517 0.174939
vt 0.167966 0.174208
vt 0.167480 0.174136
vt 0.168172 0.175638
vt 0.168325 0.174991
vt 0.168465 0.174213
vt 0.168809 0.174919
vt 0.168998 0.174191
vt 0.169417 0.174807
vt 0.170030 0.177954
vt 0.170024 0.177398
vt 0.169971 0.176857
vt 0.169808 0.176340
vt 0.169811 0.175858
vt 0.169910 0.175336
vt 0.167152 0.178922
vt 0.167613 0.175626
vt 0.180504 0.175354
vt 0.180425 0.175837
vt 0.181038 0.175899
vt 0.180219 0.176326
vt 0.180986 0.176378
vt 0.180129 0.176769
vt 0.180936 0.176854
vt 0.180113 0.177224
vt 0.180887 0.177331
vt 0.180154 0.177745
vt 0.180654 0.177796
vt 0.180143 0.174751
vt 0.179990 0.175286
vt 0.179710 0.175864
vt 0.179513 0.176305
vt 0.179407 0.176666
vt 0.179449 0.177058
vt 0.179520 0.177545
vt 0.179682 0.174589
vt 0.179474 0.175260
vt 0.179142 0.175937
vt 0.178949 0.176316
vt 0.178861 0.176577
vt 0.178863 0.176851
vt 0.178924 0.177249
vt 0.178946 0.175364
vt 0.178727 0.176031
vt 0.180107 0.178250
vt 0.180599 0.178288
vt 0.179568 0.178134
vt 0.179510 0.178683
vt 0.180003 0.178733
vt 0.179010 0.177948
vt 0.178993 0.178741
vt 0.178562 0.177049
vt 0.178581 0.177856
vt 0.178475 0.178836
vt 0.178314 0.176978
vt 0.178205 0.177742
vt 0.177996 0.178839
vt 0.178053 0.176998
vt 0.177813 0.177743
vt 0.177668 0.177075
vn -0.0961 0.6099 -0.7867
vn -0.3920 0.5067 -0.7678
vn -0.1249 0.5023 -0.8556
vn 0.7776 0.5607 0.2845
vn 0.2062 0.9543 -0.2163
vn 0.2034 0.7048 -0.6796
vn 0.3408 0.8802 -0.3304
vn 0.1645 0.5210 -0.8375
vn 0.4489 0.6181 -0.6453
vn 0.4548 0.4741 -0.7539
vn 0.4741 0.5583 -0.6808
vn 0.5750 0.4642 -0.6737
vn 0.5810 0.5352 -0.6132
vn 0.7340 0.5126 -0.4456
vn 0.6747 0.5681 -0.4712
vn 0.7800 0.5776 -0.2408
vn 0.7179 0.6140 -0.3282
vn 0.7599 0.6479 0.0533
vn -0.2589 0.4848 -0.8354
vn 0.8312 0.4916 0.2599
vn -0.3136 0.6656 -0.6772
vn -0.2914 0.8802 -0.3747
vn -0.1578 0.5115 -0.8447
vn -0.1671 0.6590 -0.7333
vn 0.1494 0.5154 -0.8438
vn 0.3297 0.5927 -0.7349
vn 0.5166 0.4831 -0.7069
vn 0.5076 0.5629 -0.6522
vn 0.8030 0.4550 -0.3849
vn 0.7281 0.5309 -0.4336
vn 0.8663 0.4667 -0.1780
vn 0.7927 0.5422 -0.2786
vn 0.8752 0.4799 0.0614
vn 0.8237 0.5580 -0.1011
vn 0.7876 0.5980 0.1484
vn -0.2116 0.7417 0.6364
vn -0.1858 0.5988 0.7790
vn -0.0251 0.5130 0.8580
vn 0.1657 0.7988 0.5783
vn 0.1051 0.5970 0.7953
vn 0.1197 0.5216 0.8447
vn 0.3398 0.8797 0.3326
vn 0.3209 0.6089 0.7254
vn 0.4015 0.5338 0.7442
vn 0.6500 0.5557 0.5183
vn 0.7965 0.5960 0.1018
vn 0.7322 0.4541 0.5077
vn 0.8771 0.4293 0.2156
vn 0.8275 0.4654 0.3141
vn 0.8309 0.5510 -0.0772
vn 0.7248 0.5607 -0.4004
vn -0.1314 0.4642 -0.8760
vn -0.0818 0.5352 -0.8408
vn 0.1451 0.5126 -0.8463
vn 0.0868 0.5681 -0.8184
vn 0.3299 0.5776 -0.7467
vn 0.2231 0.6140 -0.7571
vn 0.5386 0.6479 -0.5386
vn 0.7846 0.5870 0.1995
vn 0.8085 0.5514 0.2055
vn 0.8066 0.5135 0.2928
vn 0.8161 0.5778 0.0107
vn 0.7040 0.6697 -0.2364
vn -0.2996 0.6673 0.6818
vn -0.1733 0.6075 0.7752
vn -0.1411 0.4547 0.8794
vn 0.0556 0.7577 0.6502
vn 0.1254 0.6046 0.7866
vn 0.0900 0.5110 0.8548
vn 0.0327 0.8096 0.5861
vn 0.2259 0.5848 0.7791
vn 0.2669 0.5064 0.8200
vn 0.4086 0.5432 0.7335
vn 0.1989 0.6300 0.7507
vn 0.6145 0.4598 0.6411
vn 0.7627 0.4730 0.4412
vn 0.8839 0.4327 0.1774
vn 0.8545 0.4806 -0.1970
vn 0.7413 0.4916 -0.4569
vn -0.1948 0.4831 -0.8536
vn -0.1594 0.5629 -0.8110
vn 0.2362 0.4550 -0.8586
vn 0.1503 0.5309 -0.8340
vn 0.4339 0.4667 -0.7707
vn 0.3096 0.5422 -0.7811
vn 0.6204 0.4799 -0.6204
vn 0.4639 0.5580 -0.6880
vn 0.3490 0.6247 0.6985
vn 0.7668 0.5736 0.2881
vn 0.7722 0.5266 0.3555
vn 0.8412 0.5355 -0.0750
vn 0.7544 0.5342 -0.3814
vn 0.6287 0.5980 -0.4972
vn 0.3608 0.7824 -0.5077
vn 0.2990 0.5768 -0.7602
vn 0.4985 0.5723 -0.6512
vn 0.5028 0.5694 -0.6503
vn 0.4992 0.5752 -0.6480
vn 0.6119 0.6039 -0.5107
vn 0.5256 0.8444 0.1034
vn -0.1299 0.8433 -0.5216
vn 0.0656 0.5320 -0.8442
vn 0.2449 0.5342 -0.8091
vn 0.4580 0.5410 -0.7054
vn 0.4641 0.5381 -0.7036
vn 0.4586 0.5459 -0.7012
vn 0.7073 0.5988 -0.3757
vn 0.7743 0.6099 -0.1690
vn -0.3070 0.6281 -0.7150
vn -0.1825 0.4400 -0.8793
vn 0.1298 0.4765 -0.8695
vn 0.4254 0.5092 -0.7482
vn 0.7279 0.5067 -0.4619
vn 0.8402 0.5023 -0.2041
vn -0.2746 0.4127 -0.8685
vn 0.2346 0.9543 0.1851
vn 0.6954 0.7046 0.1416
vn 0.3586 0.8786 0.3152
vn 0.8373 0.5117 0.1926
vn 0.6136 0.6041 0.5084
vn 0.7762 0.4439 0.4477
vn 0.6527 0.5124 0.5580
vn 0.7281 0.4327 0.5316
vn 0.6508 0.4712 0.5953
vn 0.5399 0.4758 0.6944
vn 0.5413 0.4735 0.6949
vn 0.5419 0.4724 0.6951
vn 0.4208 0.7855 -0.4538
vn 0.5385 0.6063 -0.5852
vn 0.5764 0.5712 -0.5843
vn 0.3461 0.5863 -0.7324
vn 0.1437 0.9410 -0.3065
vn 0.2772 0.5969 -0.7529
vn 0.4992 0.5757 -0.6476
vn 0.6358 0.5425 -0.5490
vn 0.7422 0.5875 -0.3226
vn -0.4108 0.8760 -0.2527
vn -0.2617 0.6668 -0.6978
vn 0.1680 0.5919 -0.7883
vn 0.4587 0.5462 -0.7009
vn 0.7308 0.5086 -0.4553
vn 0.8076 0.4848 -0.3357
vn -0.3106 0.4727 -0.8247
vn -0.0195 0.5539 -0.8323
vn 0.2229 0.9465 -0.2336
vn 0.6450 0.6656 -0.3753
vn 0.3444 0.8814 -0.3234
vn 0.8268 0.5112 -0.2347
vn 0.6773 0.7220 -0.1414
vn 0.8644 0.4885 0.1189
vn 0.7323 0.5841 0.3501
vn 0.7582 0.4474 0.4743
vn 0.7102 0.5064 0.4891
vn 0.4782 0.4307 0.7654
vn 0.5412 0.4736 0.6949
vn 0.2925 0.4425 0.8477
usemtl Material_Juanjo
s 1
f 2/1/1 3/2/1 1/3/1
f 4/4/2 5/5/2 2/1/2
f 5/5/3 6/6/3 3/2/3
f 8/7/4 10/8/4 9/9/4
f 1/3/5 12/10/5 11/11/5
f 3/2/6 13/12/6 12/10/6
f 13/12/7 15/13/7 14/14/7
f 6/6/8 16/15/8 13/12/8
f 16/15/9 17/16/9 15/13/9
f 18/17/10 19/18/10 16/15/10
f 19/18/11 20/19/11 17/16/11
f 21/20/12 22/21/12 19/18/12
f 22/21/13 23/22/13 20/19/13
f 24/23/14 25/24/14 22/21/14
f 25/24/15 26/25/15 23/22/15
f 9/9/16 27/26/16 25/24/16
f 27/26/17 28/27/17 26/25/17
f 10/8/18 29/28/18 27/26/18
f 5/5/19 3/2/19 2/1/19
f 8/7/20 9/9/20 7/29/20
f 3/2/21 12/10/21 1/3/21
f 13/12/22 14/14/22 12/10/22
f 6/6/23 13/12/23 3/2/23
f 16/15/24 15/13/24 13/12/24
f 18/17/25 16/15/25 6/6/25
f 19/18/26 17/16/26 16/15/26
f 21/20/27 19/18/27 18/17/27
f 22/21/28 20/19/28 19/18/28
f 24/23/29 22/21/29 21/20/29
f 25/24/30 23/22/30 22/21/30
f 9/9/31 25/24/31 24/23/31
f 27/26/32 26/25/32 25/24/32
f 10/8/33 27/26/33 9/9/33
f 29/28/34 28/27/34 27/26/34
f 30/30/35 29/28/35 10/8/35
f 35/31/36 36/32/36 32/33/36
f 36/32/37 37/34/37 33/35/37
f 37/34/38 38/36/38 34/37/38
f 39/38/39 40/39/39 36/32/39
f 40/39/40 41/40/40 37/34/40
f 41/40/41 42/41/41 38/36/41
f 43/42/42 44/43/42 40/39/42
f 44/43/43 45/44/43 41/40/43
f 45/44/44 46/45/44 42/41/44
f 46/45/45 48/46/45 47/47/45
f 49/48/46 50/49/46 45/44/46
f 50/49/47 51/50/47 46/45/47
f 51/50/48 52/51/48 48/46/48
f 52/51/49 54/52/49 53/53/49
f 54/52/50 56/54/50 55/55/50
f 56/54/51 58/56/51 57/57/51
f 62/58/52 63/59/52 60/60/52
f 63/59/53 64/61/53 61/62/53
f 65/63/54 66/64/54 63/59/54
f 66/64/55 67/65/55 64/61/55
f 57/57/56 68/66/56 66/64/56
f 68/66/57 69/67/57 67/65/57
f 58/56/58 70/68/58 68/66/58
f 71/69/59 72/70/59 51/50/59
f 72/70/60 73/71/60 52/51/60
f 73/71/61 74/72/61 54/52/61
f 74/72/62 75/73/62 56/54/62
f 75/73/63 76/74/63 58/56/63
f 35/31/64 32/33/64 31/75/64
f 36/32/65 33/35/65 32/33/65
f 37/34/66 34/37/66 33/35/66
f 39/38/67 36/32/67 35/31/67
f 40/39/68 37/34/68 36/32/68
f 41/40/69 38/36/69 37/34/69
f 43/42/70 40/39/70 39/38/70
f 44/43/71 41/40/71 40/39/71
f 45/44/72 42/41/72 41/40/72
f 46/45/73 47/47/73 42/41/73
f 49/48/74 45/44/74 44/43/74
f 50/49/75 46/45/75 45/44/75
f 51/50/76 48/46/76 46/45/76
f 52/51/77 53/53/77 48/46/77
f 54/52/78 55/55/78 53/53/78
f 56/54/79 57/57/79 55/55/79
f 62/58/80 60/60/80 59/76/80
f 63/59/81 61/62/81 60/60/81
f 65/63/82 63/59/82 62/58/82
f 66/64/83 64/61/83 63/59/83
f 57/57/84 66/64/84 65/63/84
f 68/66/85 67/65/85 66/64/85
f 58/56/86 68/66/86 57/57/86
f 70/68/87 69/67/87 68/66/87
f 71/69/88 51/50/88 50/49/88
f 72/70/89 52/51/89 51/50/89
f 73/71/90 54/52/90 52/51/90
f 74/72/91 56/54/91 54/52/91
f 75/73/92 58/56/92 56/54/92
f 76/74/93 70/68/93 58/56/93
f 77/77/94 79/78/94 78/79/94
f 79/78/95 81/80/95 80/81/95
f 81/80/96 83/82/97 82/83/98
f 83/82/99 85/84/99 84/85/99
f 85/84/100 87/86/100 86/87/100
f 88/88/101 89/89/101 77/77/101
f 89/89/102 90/90/102 79/78/102
f 90/90/103 91/91/103 81/80/103
f 91/91/104 92/92/105 83/82/106
f 92/92/107 93/93/107 85/84/107
f 93/93/108 94/94/108 87/86/108
f 95/95/109 96/96/109 89/89/109
f 96/96/110 97/97/110 90/90/110
f 97/97/111 98/98/111 91/91/111
f 98/98/112 99/99/112 92/92/112
f 99/99/113 100/100/113 93/93/113
f 100/100/114 101/101/114 94/94/114
f 102/102/115 103/103/115 97/97/115
f 87/86/116 106/104/116 105/105/116
f 94/94/117 107/106/117 106/104/117
f 107/106/118 109/107/118 108/108/118
f 101/101/119 110/109/119 107/106/119
f 110/109/120 111/110/120 109/107/120
f 112/111/121 113/112/121 110/109/121
f 113/112/122 114/113/122 111/110/122
f 115/114/123 116/115/123 113/112/123
f 116/115/124 117/116/124 114/113/124
f 118/117/125 119/118/126 116/115/127
f 79/78/128 80/81/128 78/79/128
f 81/80/129 82/83/129 80/81/129
f 83/82/130 84/85/130 82/83/130
f 85/84/131 86/87/131 84/85/131
f 89/89/132 79/78/132 77/77/132
f 90/90/133 81/80/133 79/78/133
f 91/91/134 83/82/97 81/80/96
f 92/92/135 85/84/135 83/82/135
f 93/93/136 87/86/136 85/84/136
f 95/95/137 89/89/137 88/88/137
f 96/96/138 90/90/138 89/89/138
f 97/97/139 91/91/139 90/90/139
f 98/98/140 92/92/105 91/91/104
f 99/99/141 93/93/141 92/92/141
f 100/100/142 94/94/142 93/93/142
f 102/102/143 97/97/143 96/96/143
f 103/103/144 98/98/144 97/97/144
f 87/86/145 105/105/145 86/87/145
f 94/94/146 106/104/146 87/86/146
f 107/106/147 108/108/147 106/104/147
f 101/101/148 107/106/148 94/94/148
f 110/109/149 109/107/149 107/106/149
f 112/111/150 110/109/150 101/101/150
f 113/112/151 111/110/151 110/109/151
f 115/114/152 113/112/152 112/111/152
f 116/115/153 114/113/153 113/112/153
f 118/117/154 116/115/154 115/114/154
f 119/118/126 117/116/155 116/115/127
f 104/119/156 119/118/156 118/117/156
