# Blender v2.90.0 Alpha OBJ File: 'Juanjomecagoentufeedback.blend'
# www.blender.org
mtllib Lighthouse_LIGHT.mtl
o Sphere.009_Sphere.012
v 8.676218 10.420487 -4.342325
v 8.683339 10.532245 -4.313238
v 8.777348 10.476366 -4.336254
v 8.729371 10.644002 -4.125223
v 8.865622 10.517272 -4.273638
v 8.702795 10.614057 -4.233774
v 8.755948 10.614056 -4.016672
v 8.917387 10.532245 -4.171254
v 8.777348 10.364609 -4.336254
v 8.865622 10.323703 -4.273638
v 8.918775 10.323703 -4.056536
v 8.917387 10.308731 -4.171254
v 8.702795 10.226919 -4.233774
v 8.683339 10.308731 -4.313238
v 8.729371 10.196974 -4.125223
v 8.539968 10.323703 -4.193909
v 8.589333 10.364609 -4.290223
v 8.755948 10.226919 -4.016672
v 8.541356 10.308731 -4.079191
v 8.539968 10.517272 -4.193909
v 8.589333 10.476366 -4.290223
v 8.593122 10.323703 -3.976807
v 8.541356 10.532245 -4.079191
v 8.593122 10.517272 -3.976807
v 8.768853 10.558238 -3.963954
v 8.867296 10.490556 -4.054833
v 8.753429 10.558238 -4.026956
v 8.882722 10.490556 -3.991832
v 8.867296 10.355190 -4.054833
v 8.882722 10.355190 -3.991832
v 8.753429 10.287508 -4.026956
v 8.768853 10.287508 -3.963954
v 8.639563 10.355190 -3.999078
v 8.689263 10.375564 -3.944468
v 8.654987 10.355190 -3.936076
v 8.639563 10.490556 -3.999078
v 8.654987 10.490556 -3.936076
v 8.678005 10.470181 -3.990450
v 8.689263 10.470181 -3.944468
v 8.848446 10.375564 -3.983440
v 8.848446 10.470181 -3.983440
v 8.768853 10.328255 -3.963954
v 8.768853 10.517491 -3.963954
v 8.757597 10.328255 -4.009936
v 8.837188 10.470182 -4.029423
v 8.757597 10.517491 -4.009936
v 8.678005 10.375564 -3.990450
v 8.837188 10.375564 -4.029423
v 8.918775 10.517272 -4.056536
v 8.810224 10.517271 -4.029960
v 8.701673 10.517271 -4.003384
v 8.647397 10.420487 -3.990095
v 8.701673 10.323703 -4.003384
v 8.864499 10.420487 -4.043248
v 8.810224 10.323703 -4.029960
vt 0.506487 0.834891
vt 0.504643 0.835813
vt 0.504643 0.833968
vt 0.500953 0.835813
vt 0.502798 0.833968
vt 0.502798 0.835813
vt 0.499109 0.835813
vt 0.500953 0.833968
vt 0.506487 0.833046
vt 0.504643 0.832124
vt 0.502798 0.832124
vt 0.499109 0.832124
vt 0.500953 0.832124
vt 0.502798 0.830279
vt 0.504643 0.830279
vt 0.500953 0.830279
vt 0.506487 0.831201
vt 0.502798 0.828434
vt 0.504643 0.828434
vt 0.499109 0.830279
vt 0.500953 0.828434
vt 0.506487 0.829357
vt 0.504643 0.839502
vt 0.502798 0.837658
vt 0.504643 0.837658
vt 0.499109 0.839502
vt 0.500953 0.837658
vt 0.500953 0.839502
vt 0.506487 0.838580
vt 0.502798 0.839502
vt 0.499109 0.837658
vt 0.506487 0.836735
vt 0.499109 0.830894
vt 0.499109 0.828434
vt 0.499109 0.829664
vt 0.516791 0.163779
vt 0.517565 0.162220
vt 0.517560 0.164302
vt 0.516732 0.162627
vt 0.515759 0.161199
vt 0.515697 0.162121
vt 0.513947 0.162212
vt 0.514714 0.162739
vt 0.513947 0.164295
vt 0.515077 0.163701
vt 0.514781 0.163887
vt 0.515751 0.165333
vt 0.515816 0.164407
vt 0.515759 0.163693
vt 0.515806 0.164056
vt 0.515706 0.162473
vt 0.516438 0.162814
vt 0.515020 0.162904
vt 0.516484 0.163613
vt 0.515347 0.163042
vt 0.516160 0.163037
vt 0.516153 0.163470
vt 0.515360 0.163476
vt 0.515751 0.162841
vt 0.499109 0.833968
vt 0.499109 0.834583
vt 0.499109 0.830894
vt 0.499109 0.833353
vt 0.499109 0.833354
vn -0.0836 0.2560 -0.9631
vn 0.4193 0.8436 -0.3354
vn 0.2114 0.6546 -0.7258
vn 0.2114 0.6547 -0.7258
vn 0.5268 0.8436 0.1037
vn 0.0599 0.0000 -0.9982
vn 0.8924 0.0000 -0.4512
vn 0.5786 0.0000 -0.8156
vn 0.9999 0.0000 -0.0121
vn 0.4193 -0.8436 -0.3354
vn 0.2114 -0.6547 -0.7258
vn 0.5268 -0.8436 0.1037
vn -0.0836 -0.2560 -0.9631
vn -0.5228 -0.6547 -0.5460
vn -0.4193 -0.8436 0.3354
vn -0.3707 -0.2560 -0.8928
vn -0.5268 -0.8436 -0.1037
vn -0.8899 0.0000 -0.4561
vn -0.8924 0.0000 0.4512
vn -0.5143 0.0000 -0.8576
vn -0.9999 0.0000 0.0121
vn -0.5228 0.6547 -0.5460
vn -0.4193 0.8436 0.3354
vn -0.3707 0.2560 -0.8928
vn -0.5268 0.8436 -0.1037
vn 0.2378 0.0000 0.9713
vn 0.4857 0.8660 -0.1189
vn 0.4856 0.8660 -0.1189
vn 0.9713 0.0000 -0.2378
vn 0.4856 -0.8660 -0.1189
vn 0.4857 -0.8660 -0.1189
vn -0.4857 -0.8660 0.1189
vn -0.9713 0.0000 0.2378
vn -0.4857 0.8660 0.1189
vn -0.4856 0.8660 0.1189
vn 0.2114 -0.6546 -0.7258
vn -0.5228 0.6546 -0.5460
usemtl Material_Juanjo
s 1
f 1/1/1 2/2/1 3/3/1
f 4/4/2 5/5/2 6/6/2
f 2/2/3 5/5/3 3/3/4
f 7/7/5 8/8/5 4/4/5
f 1/9/6 3/3/6 9/10/6
f 8/8/7 10/11/7 5/5/7
f 3/3/8 10/11/8 9/10/8
f 8/8/9 11/12/9 12/13/9
f 12/13/10 13/14/10 10/11/10
f 9/10/11 13/14/11 14/15/11
f 11/12/12 15/16/12 12/13/12
f 1/17/13 9/10/13 14/15/13
f 14/15/14 16/18/14 17/19/14
f 18/20/15 19/21/15 15/16/15
f 1/22/16 14/15/16 17/19/16
f 15/16/17 16/18/17 13/14/17
f 17/23/18 20/24/18 21/25/18
f 22/26/19 23/27/19 19/28/19
f 1/29/20 17/23/20 21/25/20
f 16/30/21 23/27/21 20/24/21
f 21/25/22 6/6/22 2/2/22
f 24/31/23 4/4/23 23/27/23
f 1/32/24 21/25/24 2/2/24
f 20/24/25 4/4/25 6/6/25
f 52/33/26 22/34/26 53/35/26
f 25/36/27 26/37/28 27/38/27
f 28/39/29 29/40/29 26/37/29
f 30/41/30 31/42/31 29/40/30
f 32/43/32 33/44/32 31/42/32
f 32/43/26 34/45/26 35/46/26
f 35/46/33 36/47/33 33/44/33
f 37/48/34 27/38/34 36/47/35
f 34/45/29 38/49/29 39/50/29
f 28/39/26 40/51/26 30/41/26
f 35/46/26 39/50/26 37/48/26
f 25/36/26 41/52/26 28/39/26
f 32/43/26 40/51/26 42/53/26
f 37/48/26 43/54/26 25/36/26
f 40/51/34 44/55/34 42/53/34
f 43/54/32 45/56/32 41/52/32
f 39/50/31 46/57/31 43/54/31
f 42/53/27 47/58/27 34/45/27
f 41/52/33 48/59/33 40/51/33
f 4/4/2 8/8/2 5/5/2
f 2/2/3 6/6/3 5/5/3
f 7/7/5 49/60/5 8/8/5
f 8/8/7 12/13/7 10/11/7
f 3/3/8 5/5/8 10/11/8
f 8/8/9 49/60/9 11/12/9
f 12/13/10 15/16/10 13/14/10
f 9/10/11 10/11/36 13/14/11
f 11/12/12 18/20/12 15/16/12
f 14/15/14 13/14/14 16/18/14
f 18/20/15 22/34/15 19/21/15
f 15/16/17 19/21/17 16/18/17
f 17/23/18 16/30/18 20/24/18
f 22/26/19 24/31/19 23/27/19
f 16/30/21 19/28/21 23/27/21
f 21/25/22 20/24/37 6/6/22
f 24/31/23 7/7/23 4/4/23
f 20/24/25 23/27/25 4/4/25
f 49/60/26 7/7/26 50/61/26
f 24/31/26 22/34/26 52/33/26
f 18/20/26 11/12/26 55/62/26
f 25/36/27 28/39/28 26/37/28
f 28/39/29 30/41/29 29/40/29
f 30/41/30 32/43/31 31/42/31
f 32/43/32 35/46/32 33/44/32
f 32/43/26 42/53/26 34/45/26
f 35/46/33 37/48/33 36/47/33
f 37/48/34 25/36/34 27/38/34
f 34/45/29 47/58/29 38/49/29
f 28/39/26 41/52/26 40/51/26
f 35/46/26 34/45/26 39/50/26
f 25/36/26 43/54/26 41/52/26
f 32/43/26 30/41/26 40/51/26
f 37/48/26 39/50/26 43/54/26
f 40/51/34 48/59/34 44/55/34
f 43/54/32 46/57/32 45/56/32
f 39/50/31 38/49/31 46/57/31
f 42/53/27 44/55/27 47/58/27
f 41/52/33 45/56/33 48/59/33
f 7/7/26 51/63/26 50/61/26
f 49/60/26 50/61/26 54/64/26
f 7/7/26 24/31/26 51/63/26
f 54/64/26 55/62/26 11/12/26
f 51/63/26 24/31/26 52/33/26
f 22/34/26 18/20/26 53/35/26
f 11/12/26 49/60/26 54/64/26
f 53/35/26 18/20/26 55/62/26
