# Blender v2.90.0 Alpha OBJ File: 'Juanjomecagoentufeedback.blend'
# www.blender.org
mtllib BLANCO.mtl
o Plane.004_Plane.006
v 8.461468 10.079609 -4.293471
v 8.654977 9.648211 -4.448854
v 8.451424 9.648211 -4.299565
v 8.424464 10.079609 -4.052862
v 8.413054 9.648210 -4.050068
v 8.568436 10.079609 -3.856559
v 8.562343 9.648210 -3.846515
v 8.809047 10.079609 -3.819556
v 8.811840 9.648210 -3.808145
v 9.005349 10.079609 -3.963528
v 9.015393 9.648210 -3.957434
v 9.042354 10.079609 -4.204137
v 9.053761 9.648211 -4.206931
v 8.898381 10.079609 -4.400440
v 8.904474 9.648211 -4.410484
v 8.657770 10.079609 -4.437443
v 8.646596 8.354011 -4.483087
v 8.928847 7.929420 -4.450661
v 8.643803 7.929420 -4.494498
v 8.649389 8.785410 -4.471676
v 8.910567 9.216810 -4.420528
v 8.916660 8.785410 -4.430573
v 9.087997 8.354011 -4.215312
v 9.099405 7.915405 -4.218106
v 9.065173 9.216810 -4.209725
v 9.076586 8.785410 -4.212518
v 9.055570 7.929419 -3.933061
v 9.035481 8.785410 -3.945248
v 9.045526 8.354010 -3.939154
v 8.823015 7.929419 -3.762501
v 8.814633 9.216810 -3.796734
v 8.817427 8.785410 -3.785323
v 8.820222 8.354010 -3.773912
v 8.537970 7.929419 -3.806338
v 8.550158 8.785410 -3.826427
v 8.544063 8.354010 -3.816382
v 8.367410 7.929419 -4.038893
v 8.556251 9.216810 -3.836471
v 8.390231 8.785410 -4.044480
v 8.378821 8.354010 -4.041687
v 8.411247 7.929420 -4.323938
v 8.401643 9.216810 -4.047274
v 8.431335 8.785410 -4.311751
v 8.421291 8.354011 -4.317845
v 8.652184 9.216810 -4.460265
v 8.922753 8.354011 -4.440617
v 9.025437 9.216810 -3.951341
v 8.441380 9.216810 -4.305658
v -18.510937 10.643809 -7.946583
v -18.510937 13.765926 -10.288176
v -18.510937 14.998280 -12.629769
v -18.510937 13.982647 -14.971362
v -18.510937 10.915378 -17.312954
v -16.169342 10.758412 -7.946583
v -16.169342 14.213905 -10.288176
v -16.169342 15.644575 -12.629769
v -16.169342 14.635185 -14.971362
v -16.169342 11.859503 -17.312954
v -13.827748 10.220934 -7.946583
v -13.827748 13.383093 -10.288176
v -13.827748 14.213905 -12.629769
v -13.827748 12.956490 -14.971362
v -13.827748 10.643810 -17.312954
v -11.486156 10.643810 -10.288177
v -11.486156 11.603891 -12.629770
v -11.486156 10.643810 -14.971363
v -11.486156 8.467113 -17.312956
v -19.324753 5.964282 15.287297
v -19.182053 4.632353 13.252224
v -18.235867 6.723477 14.341111
v -18.093168 4.040891 12.306037
v -17.146980 6.097793 13.394923
v -17.004284 2.699929 11.359852
v -16.058094 4.208190 12.448736
v -18.378565 6.240261 16.376183
v -17.289680 7.121630 15.429999
v -16.200792 6.499791 14.483811
v -15.111906 4.789822 13.537622
v -17.432379 5.728434 17.465069
v -16.343494 6.240261 16.518881
v -15.254605 5.465624 15.572696
v -14.165720 4.040890 14.626510
v -15.397305 4.632352 17.607767
v -14.308419 4.040890 16.661579
v -13.219534 2.699928 15.715395
v -18.042938 6.076685 9.916489
v -16.003426 6.076684 9.868811
v -16.999344 8.000076 10.912408
v -14.959828 6.668147 10.864727
v -15.955744 8.759271 11.908325
v -13.916232 6.076684 11.860644
v -14.912147 8.133585 12.904242
v -12.872637 4.735722 12.856561
v -13.868552 6.243984 13.900157
v -19.038855 6.147286 10.960087
v -17.995258 8.276054 11.956005
v -16.951664 9.157423 12.951921
v -15.908066 8.535583 13.947837
v -14.864470 6.825616 14.943753
v -18.991177 7.764228 12.999601
v -17.947578 8.276054 13.995518
v -16.903982 7.501418 14.991434
v -15.860385 6.076684 15.987350
v -18.943493 6.668147 15.039114
v -17.899899 6.076684 16.035030
v -16.856302 4.735721 17.030945
vt 0.502599 0.151362
vt 0.502254 0.151561
vt 0.502256 0.151210
vt 0.502637 0.151304
vt 0.502503 0.150956
vt 0.502704 0.151295
vt 0.502858 0.150956
vt 0.502757 0.151338
vt 0.503108 0.151208
vt 0.502765 0.151409
vt 0.503107 0.151563
vt 0.502722 0.151465
vt 0.502856 0.151814
vt 0.502656 0.151476
vt 0.502501 0.151814
vt 0.502604 0.151433
vt 0.509574 0.144797
vt 0.509294 0.144437
vt 0.509724 0.144424
vt 0.509131 0.142813
vt 0.509478 0.143053
vt 0.509127 0.143184
vt 0.509421 0.144889
vt 0.509088 0.144777
vt 0.509545 0.143103
vt 0.509390 0.143446
vt 0.509113 0.145122
vt 0.509760 0.143446
vt 0.509428 0.144991
vt 0.509366 0.145374
vt 0.509687 0.143030
vt 0.510025 0.143191
vt 0.509505 0.145050
vt 0.509736 0.145374
vt 0.510029 0.142819
vt 0.509601 0.145036
vt 0.510006 0.145107
vt 0.509677 0.142950
vt 0.509765 0.142557
vt 0.509662 0.144956
vt 0.510010 0.144715
vt 0.509610 0.142900
vt 0.509396 0.142557
vt 0.509650 0.144858
vt 0.509469 0.142973
vt 0.509481 0.144809
vt 0.509631 0.143092
vt 0.509524 0.142912
vt 0.517005 0.137814
vt 0.516333 0.137692
vt 0.516311 0.138018
vt 0.516005 0.137676
vt 0.516005 0.137938
vt 0.515720 0.137654
vt 0.515699 0.137956
vt 0.515183 0.137658
vt 0.515103 0.138096
vt 0.517150 0.137382
vt 0.516423 0.137296
vt 0.516013 0.137345
vt 0.515627 0.137278
vt 0.515081 0.137184
vt 0.516426 0.136620
vt 0.515969 0.136766
vt 0.515497 0.136733
vt 0.514916 0.136615
vt 0.516892 0.138234
vt 0.513536 0.138236
vt 0.513348 0.138247
vt 0.513232 0.138632
vt 0.512980 0.138333
vt 0.512865 0.138714
vt 0.513738 0.138085
vt 0.513536 0.138074
vt 0.513361 0.138061
vt 0.513030 0.138063
vt 0.513794 0.137840
vt 0.513541 0.137870
vt 0.513304 0.137829
vt 0.512967 0.137771
vt 0.513514 0.137514
vt 0.513223 0.137493
vt 0.512865 0.137421
vt 0.513506 0.138597
vt 0.513725 0.138285
vt 0.511836 0.138202
vt 0.511478 0.138069
vt 0.511539 0.138442
vt 0.511290 0.138020
vt 0.511259 0.138381
vt 0.511101 0.138031
vt 0.510985 0.138416
vt 0.510733 0.138117
vt 0.510619 0.138498
vt 0.511906 0.137944
vt 0.511491 0.137869
vt 0.511289 0.137858
vt 0.511114 0.137845
vt 0.510783 0.137847
vt 0.511547 0.137624
vt 0.511294 0.137654
vt 0.511057 0.137613
vt 0.510720 0.137556
vt 0.511267 0.137298
vt 0.510976 0.137277
vt 0.510619 0.137205
vn -0.5912 0.0252 -0.8061
vn -0.9881 0.0251 -0.1520
vn -0.8061 0.0252 0.5912
vn -0.1520 0.0252 0.9881
vn 0.5912 0.0251 0.8061
vn 0.5912 0.0252 0.8061
vn 0.9881 0.0251 0.1520
vn 0.9881 0.0251 0.1519
vn 0.8061 0.0251 -0.5912
vn 0.8061 0.0252 -0.5912
vn 0.1520 0.0252 -0.9881
vn 0.1520 0.0256 -0.9881
vn 0.8068 0.0247 -0.5903
vn 0.9882 0.0248 0.1510
vn 0.9881 0.0254 0.1519
vn 0.9883 0.0247 0.1508
vn 0.9881 0.0252 0.1520
vn 0.5912 0.0256 0.8061
vn -0.1520 0.0256 0.9881
vn -0.8061 0.0256 0.5912
vn -0.9881 0.0256 -0.1520
vn -0.9881 0.0252 -0.1520
vn -0.5912 0.0256 -0.8061
vn -0.8061 0.0251 0.5912
vn 0.1520 0.0251 -0.9881
vn 0.8061 0.0256 -0.5912
vn 0.9881 0.0256 0.1520
vn -0.1067 0.5578 0.8231
vn -0.2293 0.8306 0.5075
vn -0.2467 0.8895 -0.3847
vn -0.2468 0.8895 -0.3846
vn -0.2478 0.8888 -0.3856
vn -0.2516 0.6241 -0.7398
vn 0.2066 0.5823 0.7863
vn 0.4990 0.8167 0.2898
vn 0.5340 0.7449 -0.4000
vn 0.3465 0.6674 -0.6592
vn 0.7179 0.6441 0.2641
vn 0.6746 0.6830 -0.2800
vn 0.5628 0.6054 -0.5628
vn -0.0294 0.5997 0.7997
vn -0.1669 0.8725 0.4592
vn -0.2467 0.8895 -0.3846
vn -0.1667 0.5983 -0.7837
vn 0.1277 0.5564 0.8211
vn 0.2898 0.8167 0.4990
vn 0.4893 0.8009 -0.3452
vn 0.4196 0.5853 -0.6938
vn 0.7407 0.6332 0.2247
vn 0.7007 0.6286 -0.3376
vn 0.5749 0.5821 -0.5749
vn -0.3387 0.5572 -0.7582
vn 0.1552 0.5124 -0.8446
vn -0.5334 0.8306 0.1598
vn 0.1286 0.8895 -0.4385
vn 0.1285 0.8895 -0.4385
vn 0.1286 0.8887 -0.4400
vn 0.3933 0.6241 -0.6751
vn 0.1086 0.8167 0.5667
vn 0.6522 0.7449 0.1407
vn 0.7248 0.6674 -0.1708
vn 0.6539 0.6830 0.3255
vn 0.7940 0.6054 0.0557
vn -0.3547 0.5530 -0.7539
vn -0.1183 0.5065 -0.8541
vn -0.4561 0.8725 0.1752
vn 0.1284 0.8895 -0.4385
vn 0.4822 0.5983 -0.6399
vn -0.1866 0.8167 0.5460
vn 0.5815 0.8009 0.1429
vn 0.7989 0.5853 -0.1383
vn 0.7144 0.6286 0.3075
vn 0.8111 0.5821 0.0569
vn -0.0206 0.4685 -0.8832
vn 0.3373 0.5441 -0.7682
vn 0.7233 0.5572 -0.4079
vn 0.8554 0.5124 0.0758
vn -0.5218 0.5578 -0.6455
vn -0.2089 0.8306 -0.5162
vn 0.4486 0.8895 0.0871
vn 0.4486 0.8895 0.0870
vn 0.4500 0.8888 0.0870
vn 0.7089 0.6241 0.3287
vn -0.5541 0.8167 0.1609
vn -0.0793 0.7449 0.6625
vn 0.2376 0.6674 0.7058
vn -0.2631 0.6830 0.6814
vn 0.0186 0.6054 0.7957
vn 0.3635 0.5826 -0.7269
vn 0.7175 0.5530 -0.4234
vn 0.8393 0.5065 -0.1974
vn -0.5582 0.5997 -0.5733
vn -0.2170 0.8725 -0.4378
vn 0.6821 0.5983 0.4205
vn -0.5611 0.8167 -0.1349
vn -0.0881 0.8009 0.5923
vn 0.2122 0.5853 0.7825
vn -0.2395 0.6286 0.7399
vn 0.0190 0.5821 0.8129
usemtl Material_Juanjo
s 1
f 1/1/1 2/2/1 3/3/1
f 4/4/2 3/3/2 5/5/2
f 6/6/3 5/5/3 7/7/3
f 8/8/4 7/7/4 9/9/4
f 10/10/5 9/9/5 11/11/6
f 12/12/7 11/11/7 13/13/8
f 14/14/9 13/13/9 15/15/10
f 16/16/11 15/15/11 2/2/11
f 17/17/12 18/18/12 19/19/12
f 20/20/11 21/21/11 22/22/11
f 18/18/13 23/23/13 24/24/13
f 22/22/10 25/25/10 26/26/10
f 23/23/14 27/27/15 24/24/16
f 25/25/17 28/28/17 26/26/17
f 29/29/18 30/30/18 27/27/18
f 28/28/6 31/31/6 32/32/6
f 33/33/19 34/34/19 30/30/19
f 31/31/4 35/35/4 32/32/4
f 36/36/20 37/37/20 34/34/20
f 38/38/3 39/39/3 35/35/3
f 40/40/21 41/41/21 37/37/21
f 42/42/22 43/43/22 39/39/22
f 44/44/23 19/19/23 41/41/23
f 43/43/1 45/45/1 20/20/1
f 1/1/1 16/16/1 2/2/1
f 4/4/2 1/1/22 3/3/2
f 6/6/3 4/4/24 5/5/3
f 8/8/4 6/6/4 7/7/4
f 10/10/5 8/8/5 9/9/5
f 12/12/7 10/10/17 11/11/7
f 14/14/9 12/12/9 13/13/9
f 16/16/11 14/14/11 15/15/11
f 17/17/12 46/46/12 18/18/12
f 20/20/25 45/45/25 21/21/25
f 18/18/26 46/46/26 23/23/26
f 22/22/10 21/21/10 25/25/10
f 23/23/14 29/29/27 27/27/15
f 25/25/17 47/47/17 28/28/17
f 29/29/18 33/33/18 30/30/18
f 28/28/6 47/47/6 31/31/6
f 33/33/19 36/36/19 34/34/19
f 31/31/4 38/38/4 35/35/4
f 36/36/20 40/40/20 37/37/20
f 38/38/3 42/42/3 39/39/3
f 40/40/21 44/44/21 41/41/21
f 42/42/22 48/48/22 43/43/22
f 44/44/23 17/17/23 19/19/23
f 43/43/1 48/48/1 45/45/1
f 54/49/28 55/50/28 50/51/28
f 55/50/29 56/52/29 51/53/29
f 56/52/30 57/54/31 52/55/32
f 57/54/33 58/56/33 53/57/33
f 59/58/34 60/59/34 55/50/34
f 60/59/35 61/60/35 56/52/35
f 61/60/36 62/61/36 57/54/36
f 62/61/37 63/62/37 58/56/37
f 64/63/38 65/64/38 61/60/38
f 65/64/39 66/65/39 62/61/39
f 66/65/40 67/66/40 63/62/40
f 54/49/41 50/51/41 49/67/41
f 55/50/42 51/53/42 50/51/42
f 56/52/30 52/55/32 51/53/43
f 57/54/44 53/57/44 52/55/44
f 59/58/45 55/50/45 54/49/45
f 60/59/46 56/52/46 55/50/46
f 61/60/47 57/54/47 56/52/47
f 62/61/48 58/56/48 57/54/48
f 64/63/49 61/60/49 60/59/49
f 65/64/50 62/61/50 61/60/50
f 66/65/51 63/62/51 62/61/51
f 70/68/52 72/69/52 71/70/52
f 72/69/53 74/71/53 73/72/53
f 75/73/54 76/74/54 70/68/54
f 76/74/55 77/75/56 72/69/57
f 77/75/58 78/76/58 74/71/58
f 79/77/59 80/78/59 76/74/59
f 80/78/60 81/79/60 77/75/60
f 81/79/61 82/80/61 78/76/61
f 83/81/62 84/82/62 81/79/62
f 84/82/63 85/83/63 82/80/63
f 70/68/64 71/70/64 69/84/64
f 72/69/65 73/72/65 71/70/65
f 75/73/66 70/68/66 68/85/66
f 76/74/55 72/69/57 70/68/67
f 77/75/68 74/71/68 72/69/68
f 79/77/69 76/74/69 75/73/69
f 80/78/70 77/75/70 76/74/70
f 81/79/71 78/76/71 77/75/71
f 83/81/72 81/79/72 80/78/72
f 84/82/73 82/80/73 81/79/73
f 86/86/74 88/87/74 87/88/74
f 88/87/75 90/89/75 89/90/75
f 90/89/76 92/91/76 91/92/76
f 92/91/77 94/93/77 93/94/77
f 95/95/78 96/96/78 88/87/78
f 96/96/79 97/97/79 90/89/79
f 97/97/80 98/98/81 92/91/82
f 98/98/83 99/99/83 94/93/83
f 100/100/84 101/101/84 97/97/84
f 101/101/85 102/102/85 98/98/85
f 102/102/86 103/103/86 99/99/86
f 104/104/87 105/105/87 102/102/87
f 105/105/88 106/106/88 103/103/88
f 88/87/89 89/90/89 87/88/89
f 90/89/90 91/92/90 89/90/90
f 92/91/91 93/94/91 91/92/91
f 95/95/92 88/87/92 86/86/92
f 96/96/93 90/89/93 88/87/93
f 97/97/80 92/91/82 90/89/80
f 98/98/94 94/93/94 92/91/94
f 100/100/95 97/97/95 96/96/95
f 101/101/96 98/98/96 97/97/96
f 102/102/97 99/99/97 98/98/97
f 104/104/98 102/102/98 101/101/98
f 105/105/99 103/103/99 102/102/99
